# File created by Blade
# Date/Time:  Tue Sep 30 19:06:46 2014
#---------------------------------------------------------
:version 1.10
:name HOM
:units
  mass 1.0
  length 1.000000
  angle deg
:documentation
     Acclaim Skeleton File
:root
   axis xyz
   order TX TY TZ RX RY RZ
   position 0.000000 0.000000 0.000000
   orientation 0 0 0
:bonedata
   begin
      id 1
      name Spine_dum
      direction 0.000000 1.000000 0.000000
      length 7.508948
      axis 0.0 0.0 0.0 xyz
   end
   begin
      id 2
      name LeftUpLeg_dum
      direction 1.000000 0.000000 0.000000
      length 3.000560
      axis 0.0 0.0 0.0 xyz
   end
   begin
      id 3
      name RightUpLeg_dum
      direction -1.000000 0.000000 0.000000
      length 3.000560
      axis 0.0 0.0 0.0 xyz
   end
   begin
      id 4
      name Spine
      direction 0.000000 1.000000 0.000000
      length 0.000000
      axis 0.0 0.0 0.0 xyz
      dof rx ry rz
   end
   begin
      id 5
      name Spine_dum1
      direction 0.000000 1.000000 0.000000
      length 13.861154
      axis 0.0 0.0 0.0 xyz
   end
   begin
      id 6
      name Spine_dum2
      direction 0.000000 1.000000 0.000000
      length 8.204781
      axis 0.0 0.0 0.0 xyz
   end
   begin
      id 7
      name Spine_dum3
      direction 0.000000 1.000000 0.000000
      length 8.204781
      axis 0.0 0.0 0.0 xyz
   end
   begin
      id 8
      name Head
      direction 0.000000 1.000000 0.000000
      length 4.527550
      axis 0.0 0.0 0.0 xyz
      dof rx ry rz
   end
   begin
      id 9
      name LeftShoulder
      direction 1.000000 0.000000 0.000000
      length 6.635956
      axis 0.0 0.0 -90.0 xyz
      dof rx ry rz
   end
   begin
      id 10
      name LeftArm
      direction 1.000000 0.000000 0.000000
      length 10.274218
      axis 0.0 0.0 -90.0 xyz
      dof rx ry rz
   end
   begin
      id 11
      name LeftForeArm
      direction 1.000000 0.000000 0.000000
      length 8.522147
      axis 0.0 0.0 -90.0 xyz
      dof ry rz rx
   end
   begin
      id 12
      name LeftHand
      direction 0.000000 0.000000 0.000000
      length 0.000000
      axis 0.0 0.0 -90.0 xyz
      dof rx ry rz
   end
   begin
      id 13
      name LeftHand_dum1
      direction 0.000000 0.000000 0.000000
      length 0.000000
      axis 0.0 0.0 -90.0 xyz
   end
   begin
      id 14
      name LeftHand_dum2
      direction 1.000000 0.000000 0.000000
      length 3.937000
      axis 0.0 0.0 -90.0 xyz
   end
   begin
      id 15
      name LeftHandThumb1
      direction 0.000000 0.000000 1.000000
      length 3.937000
      axis 0.0 0.0 -90.0 xyz
      dof rx rz ry
   end
   begin
      id 16
      name RightShoulder
      direction -1.000000 0.000000 0.000000
      length 6.635956
      axis 0.0 0.0 90.0 xyz
      dof rx ry rz
   end
   begin
      id 17
      name RightArm
      direction -1.000000 0.000000 0.000000
      length 10.274218
      axis 0.0 0.0 90.0 xyz
      dof rx ry rz
   end
   begin
      id 18
      name RightForeArm
      direction -1.000000 0.000000 0.000000
      length 8.522147
      axis 0.0 0.0 90.0 xyz
      dof ry rz rx
   end
   begin
      id 19
      name RightHand
      direction 0.000000 0.000000 0.000000
      length 0.000000
      axis 0.0 0.0 90.0 xyz
      dof rx ry rz
   end
   begin
      id 20
      name RightHand_dum1
      direction 0.000000 0.000000 0.000000
      length 0.000000
      axis 0.0 0.0 90.0 xyz
   end
   begin
      id 21
      name RightHand_dum2
      direction -1.000000 0.000000 0.000000
      length 3.937000
      axis 0.0 0.0 90.0 xyz
   end
   begin
      id 22
      name RightHandThumb1
      direction 0.000000 0.000000 1.000000
      length 3.937000
      axis 0.0 0.0 90.0 xyz
      dof rx rz ry
   end
   begin
      id 23
      name LeftUpLeg
      direction 0.000000 -1.000000 0.000000
      length 16.490845
      axis 0.0 0.0 0.0 xyz
      dof rx ry rz
   end
   begin
      id 24
      name LeftLeg
      direction 0.000000 -1.000000 0.000000
      length 14.556576
      axis 0.0 0.0 0.0 xyz
      dof rx ry rz
   end
   begin
      id 25
      name LeftFoot
      direction 0.000000 -0.258819 0.965926
      length 4.831116
      axis 15.0 0.0 0.0 xyz
      dof rx ry rz
   end
   begin
      id 26
      name LeftToeBase
      direction 0.000000 0.000000 1.000000
      length 2.952750
      axis 0.0 0.0 0.0 xyz
      dof rx ry rz
   end
   begin
      id 27
      name RightUpLeg
      direction 0.000000 -1.000000 0.000000
      length 16.490845
      axis 0.0 0.0 0.0 xyz
      dof rx ry rz
   end
   begin
      id 28
      name RightLeg
      direction 0.000000 -1.000000 0.000000
      length 14.556576
      axis 0.0 0.0 0.0 xyz
      dof rx ry rz
   end
   begin
      id 29
      name RightFoot
      direction 0.000000 -0.258819 0.965926
      length 4.831116
      axis 15.0 0.0 0.0 xyz
      dof rx ry rz
   end
   begin
      id 30
      name RightToeBase
      direction 0.000000 0.000000 1.000000
      length 2.952750
      axis 0.0 0.0 0.0 xyz
      dof rx ry rz
   end
:hierarchy
   begin
      root Spine_dum LeftUpLeg_dum RightUpLeg_dum
      Spine_dum Spine
      LeftUpLeg_dum LeftUpLeg
      RightUpLeg_dum RightUpLeg
      Spine Spine_dum1 Spine_dum2 Spine_dum3
      Spine_dum1 Head
      Spine_dum2 LeftShoulder
      Spine_dum3 RightShoulder
      LeftShoulder LeftArm
      LeftArm LeftForeArm
      LeftForeArm LeftHand
      LeftHand LeftHand_dum1 LeftHand_dum2
      LeftHand_dum1 LeftHandThumb1
      RightShoulder RightArm
      RightArm RightForeArm
      RightForeArm RightHand
      RightHand RightHand_dum1 RightHand_dum2
      RightHand_dum1 RightHandThumb1
      LeftUpLeg LeftLeg
      LeftLeg LeftFoot
      LeftFoot LeftToeBase
      RightUpLeg RightLeg
      RightLeg RightFoot
      RightFoot RightToeBase
   end

# File created by Blade
# Date/Time:  Thu Sep 25 18:58:07 2014
# Frame Rate: 120.000 fps
#------------------------------------------------------
:FULLY-SPECIFIED
:DEGREES
293
root -1.128946 32.361119 1.049732 80.372928 -78.511289 -73.837533
Spine -9.424389 -32.671763 10.060544
Head -17.668293 -48.655677 25.193854
LeftShoulder 3.256659 1.121906 32.368180
LeftArm 35.004827 -14.531764 -24.015341
LeftForeArm 13.797220 -0.000000 16.612168
LeftHand -22.880803 -0.000000 -11.096391
LeftHandThumb1 -26.253704 0.000000 33.147579
RightShoulder -26.211642 7.565738 -37.480368
RightArm -27.027319 12.550648 32.181373
RightForeArm -31.185176 -0.000000 13.160903
RightHand -14.588954 0.000000 11.686013
RightHandThumb1 -24.326973 -0.000000 -32.862282
LeftUpLeg 2.202410 44.625552 8.469916
LeftLeg 16.359608 -0.000000 -0.000000
LeftFoot -34.968131 38.833574 -32.833639
LeftToeBase 8.662583 -0.000000 -0.000000
RightUpLeg -17.811651 25.493365 4.269779
RightLeg 2.956145 -0.000000 -0.000000
RightFoot 11.736388 45.761268 8.980057
RightToeBase -11.067669 -0.000000 0.000000
294
root -1.117582 32.363376 1.062948 79.315443 -78.488806 -72.804611
Spine -9.384330 -32.522738 10.011895
Head -17.667503 -48.642188 25.135933
LeftShoulder 3.206826 1.080161 32.325924
LeftArm 34.941942 -14.420900 -23.938839
LeftForeArm 13.708849 -0.000000 16.587334
LeftHand -22.958128 -0.000000 -11.094132
LeftHandThumb1 -26.253704 0.000000 33.147579
RightShoulder -26.164070 7.633512 -37.492916
RightArm -27.010336 12.622411 32.074901
RightForeArm -31.325148 0.000000 13.121896
RightHand -14.546121 -0.000000 11.546719
RightHandThumb1 -24.326973 -0.000000 -32.862282
LeftUpLeg 2.228628 44.623795 8.455043
LeftLeg 16.295868 -0.000000 -0.000000
LeftFoot -34.838448 38.731361 -32.663259
LeftToeBase 8.704224 -0.000000 -0.000000
RightUpLeg -17.797225 25.338908 4.234215
RightLeg 2.988606 -0.000000 -0.000000
RightFoot 11.636263 45.756699 8.807585
RightToeBase -11.468915 -0.000000 0.000000
295
root -1.107664 32.367137 1.070077 78.150904 -78.462760 -71.661152
Spine -9.330522 -32.414979 9.937493
Head -17.770504 -48.530926 25.236599
LeftShoulder 3.119587 1.217091 32.332914
LeftArm 34.908815 -14.505598 -23.946275
LeftForeArm 13.700869 0.000000 16.634584
LeftHand -22.730433 -0.000000 -11.019948
LeftHandThumb1 -26.253704 0.000000 33.147579
RightShoulder -26.222820 7.638154 -37.473691
RightArm -26.826246 12.589849 32.106539
RightForeArm -31.311411 -0.000000 13.158442
RightHand -14.711256 -0.000000 11.371893
RightHandThumb1 -24.326973 -0.000000 -32.862282
LeftUpLeg 2.261435 44.586954 8.443019
LeftLeg 16.209609 -0.000000 -0.000000
LeftFoot -34.699619 38.614993 -32.516008
LeftToeBase 8.686572 -0.000000 -0.000000
RightUpLeg -17.762278 25.258333 4.181725
RightLeg 2.970954 -0.000000 -0.000000
RightFoot 11.448345 45.673730 8.489990
RightToeBase -11.881548 -0.000000 0.000000
296
root -1.086071 32.370326 1.080055 76.579410 -78.411565 -70.067178
Spine -9.307730 -32.382418 9.880804
Head -17.861104 -48.472281 25.294828
LeftShoulder 3.078704 1.224510 32.358816
LeftArm 34.795800 -14.498126 -23.928145
LeftForeArm 13.819301 -0.000000 16.608392
LeftHand -22.918098 -0.000000 -10.920794
LeftHandThumb1 -26.253704 0.000000 33.147579
RightShoulder -26.232222 7.719772 -37.440339
RightArm -26.752838 12.526504 32.075928
RightForeArm -31.184258 -0.000000 13.209119
RightHand -14.677270 -0.000000 11.322297
RightHandThumb1 -24.326973 -0.000000 -32.862282
LeftUpLeg 2.149533 44.391513 8.321843
LeftLeg 16.162807 -0.000000 -0.000000
LeftFoot -34.670157 38.550462 -32.449344
LeftToeBase 8.729666 -0.000000 -0.000000
RightUpLeg -17.803852 25.058325 4.095623
RightLeg 2.983192 -0.000000 -0.000000
RightFoot 11.353122 45.562826 8.406972
RightToeBase -11.937459 -0.000000 0.000000
297
root -1.075938 32.373307 1.092615 75.504481 -78.381223 -69.002826
Spine -9.303540 -32.205425 9.839308
Head -17.882593 -48.468477 25.242091
LeftShoulder 3.050177 1.314441 32.335492
LeftArm 34.712825 -14.507866 -23.890638
LeftForeArm 13.738277 0.000000 16.654255
LeftHand -22.883778 -0.000000 -11.033405
LeftHandThumb1 -26.253704 0.000000 33.147579
RightShoulder -26.263858 7.667860 -37.463644
RightArm -26.600673 12.599989 32.121339
RightForeArm -31.370744 -0.000000 13.246051
RightHand -14.820203 -0.000000 11.103870
RightHandThumb1 -24.326973 -0.000000 -32.862282
LeftUpLeg 2.168933 44.338039 8.280611
LeftLeg 16.069331 -0.000000 -0.000000
LeftFoot -34.558592 38.462702 -32.329716
LeftToeBase 8.743465 -0.000000 -0.000000
RightUpLeg -17.790745 24.965238 4.026101
RightLeg 2.982322 -0.000000 -0.000000
RightFoot 11.200768 45.414521 8.238128
RightToeBase -12.166938 -0.000000 0.000000
298
root -1.062270 32.377465 1.103862 74.161746 -78.344596 -67.654235
Spine -9.309135 -32.096967 9.776811
Head -17.881444 -48.436100 25.212725
LeftShoulder 2.983410 1.405866 32.312041
LeftArm 34.663169 -14.495897 -23.821597
LeftForeArm 13.765456 0.000000 16.622912
LeftHand -22.679713 -0.000000 -11.077337
LeftHandThumb1 -26.253704 0.000000 33.147579
RightShoulder -26.238614 7.670386 -37.472815
RightArm -26.523189 12.703503 32.104079
RightForeArm -31.419057 -0.000000 13.281659
RightHand -14.645294 -0.000000 11.308741
RightHandThumb1 -24.326973 -0.000000 -32.862282
LeftUpLeg 2.138207 44.224069 8.189270
LeftLeg 15.962685 -0.000000 -0.000000
LeftFoot -34.477241 38.408068 -32.283446
LeftToeBase 8.725450 -0.000000 -0.000000
RightUpLeg -17.801181 24.832990 3.930145
RightLeg 2.984607 -0.000000 -0.000000
RightFoot 11.068347 45.291909 8.108315
RightToeBase -12.293911 -0.000000 0.000000
299
root -1.047748 32.381344 1.115308 72.682573 -78.283869 -66.210139
Spine -9.225023 -32.012326 9.676625
Head -17.938539 -48.416351 25.266885
LeftShoulder 2.925320 1.442965 32.292186
LeftArm 34.574126 -14.486464 -23.746090
LeftForeArm 13.794584 0.000000 16.619998
LeftHand -22.661525 -0.000000 -11.157871
LeftHandThumb1 -26.253704 0.000000 33.147579
RightShoulder -26.215978 7.760605 -37.467583
RightArm -26.476357 12.667146 32.117807
RightForeArm -31.403637 -0.000000 13.295590
RightHand -14.545013 0.000000 11.072272
RightHandThumb1 -24.326973 -0.000000 -32.862282
LeftUpLeg 2.164264 44.122639 8.157190
LeftLeg 15.876099 -0.000000 -0.000000
LeftFoot -34.374109 38.255168 -32.198787
LeftToeBase 8.699029 -0.000000 -0.000000
RightUpLeg -17.762252 24.680572 3.859750
RightLeg 2.983750 -0.000000 -0.000000
RightFoot 10.978768 45.146771 8.047026
RightToeBase -12.347261 -0.000000 0.000000
300
root -1.037306 32.385151 1.123844 71.335733 -78.200778 -64.872665
Spine -9.218809 -31.904275 9.641667
Head -17.929460 -48.421777 25.204257
LeftShoulder 2.928531 1.338032 32.248276
LeftArm 34.308189 -14.317526 -23.598006
LeftForeArm 13.729086 0.000000 16.575539
LeftHand -22.738909 -0.000000 -11.115182
LeftHandThumb1 -26.253704 0.000000 33.147579
RightShoulder -26.214564 7.787430 -37.483225
RightArm -26.332695 12.653070 32.152307
RightForeArm -31.407604 -0.000000 13.261109
RightHand -14.450085 -0.000000 11.213415
RightHandThumb1 -24.326973 -0.000000 -32.862282
LeftUpLeg 2.168012 44.050579 8.141719
LeftLeg 15.795130 -0.000000 -0.000000
LeftFoot -34.245577 38.103501 -32.089273
LeftToeBase 8.664128 -0.000000 -0.000000
RightUpLeg -17.743878 24.522388 3.816048
RightLeg 2.986727 -0.000000 -0.000000
RightFoot 10.857163 45.012944 7.922185
RightToeBase -12.464888 -0.000000 0.000000
301
root -1.026602 32.389605 1.132947 69.961288 -78.115274 -63.520810
Spine -9.180003 -31.755495 9.573422
Head -17.964605 -48.451763 25.188236
LeftShoulder 2.886833 1.377824 32.191182
LeftArm 34.233667 -14.301804 -23.496408
LeftForeArm 13.711965 -0.000000 16.531123
LeftHand -22.775304 0.000000 -10.961339
LeftHandThumb1 -26.253704 0.000000 33.147579
RightShoulder -26.191014 7.790133 -37.479616
RightArm -26.304600 12.708278 32.162034
RightForeArm -31.314167 -0.000000 13.366468
RightHand -14.576506 -0.000000 11.307990
RightHandThumb1 -24.326973 -0.000000 -32.862282
LeftUpLeg 2.179514 43.976911 8.130623
LeftLeg 15.734945 -0.000000 -0.000000
LeftFoot -34.100324 37.980593 -31.930421
LeftToeBase 8.719871 -0.000000 -0.000000
RightUpLeg -17.716171 24.380549 3.762623
RightLeg 2.996885 -0.000000 -0.000000
RightFoot 10.731125 44.860145 7.808906
RightToeBase -12.524348 -0.000000 0.000000
302
root -1.013929 32.394279 1.145280 68.394607 -78.019905 -61.959701
Spine -9.178657 -31.665078 9.519961
Head -17.916715 -48.454360 25.090763
LeftShoulder 2.860841 1.381736 32.145616
LeftArm 34.075740 -14.317373 -23.466968
LeftForeArm 13.942949 0.000000 16.635154
LeftHand -22.666407 -0.000000 -10.939061
LeftHandThumb1 -26.253704 0.000000 33.147579
RightShoulder -26.209255 7.746632 -37.495171
RightArm -26.134533 12.826859 32.243499
RightForeArm -31.277579 -0.000000 13.408952
RightHand -14.462841 -0.000000 11.547035
RightHandThumb1 -24.326973 -0.000000 -32.862282
LeftUpLeg 2.170113 43.901694 8.088338
LeftLeg 15.666963 -0.000000 -0.000000
LeftFoot -33.974100 37.739724 -31.870375
LeftToeBase 8.616519 -0.000000 -0.000000
RightUpLeg -17.699966 24.201460 3.678835
RightLeg 2.997326 -0.000000 -0.000000
RightFoot 10.580918 44.694837 7.690994
RightToeBase -12.537627 -0.000000 0.000000
303
root -1.004421 32.399042 1.155824 66.921490 -77.912543 -60.511363
Spine -9.140899 -31.555295 9.438693
Head -17.915656 -48.463656 25.081612
LeftShoulder 2.787814 1.498826 32.144814
LeftArm 34.035517 -14.344813 -23.432054
LeftForeArm 14.012368 -0.000000 16.614191
LeftHand -22.778977 0.000000 -10.808135
LeftHandThumb1 -26.253704 0.000000 33.147579
RightShoulder -26.115937 7.694152 -37.375987
RightArm -26.043054 12.929827 32.206898
RightForeArm -31.127969 -0.000000 13.419686
RightHand -14.532373 -0.000000 11.644849
RightHandThumb1 -24.326973 -0.000000 -32.862282
LeftUpLeg 2.202015 43.812098 8.066989
LeftLeg 15.555574 -0.000000 -0.000000
LeftFoot -33.805708 37.606569 -31.719812
LeftToeBase 8.604802 -0.000000 -0.000000
RightUpLeg -17.659663 24.064279 3.605829
RightLeg 2.985675 -0.000000 -0.000000
RightFoot 10.479558 44.455337 7.699732
RightToeBase -12.319220 -0.000000 0.000000
